<?xml version="1.0" encoding="UTF-8" standalone="no"?>
<svg
   xmlns:dc="http://purl.org/dc/elements/1.1/"
   xmlns:cc="http://creativecommons.org/ns#"
   xmlns:rdf="http://www.w3.org/1999/02/22-rdf-syntax-ns#"
   xmlns:svg="http://www.w3.org/2000/svg"
   xmlns="http://www.w3.org/2000/svg"
   xmlns:sodipodi="http://sodipodi.sourceforge.net/DTD/sodipodi-0.dtd"
   xmlns:inkscape="http://www.inkscape.org/namespaces/inkscape"
   version="1.1"
   x="0px"
   y="0px"
   viewBox="0 0 512 512"
   enable-background="new 0 0 100 100"
   xml:space="preserve"
   id="svg2"
   inkscape:version="0.91 r13725"
   sodipodi:docname="profile.svg"
   width="512"
   height="512"
   inkscape:export-filename="/home/aurelius/btsync/mk/web/jekyll-uno/images/profile.png"
   inkscape:export-xdpi="90"
   inkscape:export-ydpi="90"><metadata
     id="metadata14"><rdf:RDF><cc:Work
         rdf:about=""><dc:format>image/svg+xml</dc:format><dc:type
           rdf:resource="http://purl.org/dc/dcmitype/StillImage" /><dc:title></dc:title></cc:Work></rdf:RDF></metadata><defs
     id="defs12"><filter
       style="color-interpolation-filters:sRGB;"
       inkscape:label="Drop Shadow"
       id="filter4244"><feFlood
         flood-opacity="0.498039"
         flood-color="rgb(0,0,0)"
         result="flood"
         id="feFlood4246" /><feComposite
         in="flood"
         in2="SourceGraphic"
         operator="in"
         result="composite1"
         id="feComposite4248" /><feGaussianBlur
         in="composite1"
         stdDeviation="3"
         result="blur"
         id="feGaussianBlur4250" /><feOffset
         dx="2"
         dy="2"
         result="offset"
         id="feOffset4252" /><feComposite
         in="SourceGraphic"
         in2="offset"
         operator="over"
         result="composite2"
         id="feComposite4254" /></filter></defs><sodipodi:namedview
     pagecolor="#ffffff"
     bordercolor="#666666"
     borderopacity="1"
     objecttolerance="10"
     gridtolerance="10"
     guidetolerance="10"
     inkscape:pageopacity="0"
     inkscape:pageshadow="2"
     inkscape:window-width="1920"
     inkscape:window-height="1174"
     id="namedview10"
     showgrid="false"
     inkscape:zoom="0.6675088"
     inkscape:cx="226.40631"
     inkscape:cy="145.70906"
     inkscape:window-x="0"
     inkscape:window-y="0"
     inkscape:window-maximized="1"
     inkscape:current-layer="svg2" /><path
     d="m 503.74996,255.87366 c 0,-7.70502 -33.55031,-9.04783 -37.82151,-20.7119 -0.01,-0.0793 -0.01,-0.1536 -0.0198,-0.22794 1.95723,-12.94245 34.55122,-19.85963 33.04986,-27.39123 -1.50137,-7.55142 -34.64536,-2.3338 -41.12155,-12.92264 -0.0396,-0.10404 -0.0595,-0.19324 -0.0892,-0.29235 -0.51533,-13.05146 30.02234,-26.16734 27.08898,-33.25299 -2.96309,-7.1352 -34.60573,4.53382 -42.93013,-4.73203 -0.01,-0.0198 -0.0198,-0.0396 -0.0297,-0.0595 -3.2703,-12.69967 24.31914,-31.63767 20.04298,-38.03458 -4.29599,-6.43159 -33.16381,11.25281 -43.07382,3.68652 -5.67842,-11.82262 17.67944,-35.775093 12.24381,-41.210725 -5.47032,-5.470318 -30.31964,17.501059 -41.51795,12.025781 -7.89827,-10.479819 10.35596,-38.539984 3.96896,-42.816149 -6.43654,-4.300939 -26.32096,23.07048 -38.38142,19.889367 -9.78613,-8.735662 2.6311,-39.818374 -4.46942,-42.756689 -7.14012,-2.968035 -21.31142,27.767827 -33.76333,26.984938 -11.29244,-6.664475 -5.17798,-39.565672 -12.71453,-41.062082 -7.5861,-1.51623 -15.48437,31.389922 -27.84214,33.059757 -12.39741,-4.33067 -12.80373,-37.8016913 -20.49388,-37.8016913 -7.73971,0 -9.06765,33.8178713 -20.86055,37.8661063 -12.99201,-1.83335 -19.92405,-34.580942 -27.47052,-33.079577 -7.59106,1.511275 -2.2892,34.972387 -13.09605,41.210731 -13.09607,0.708565 -26.27141,-30.037207 -33.38184,-27.088982 -7.14015,2.96309 4.56851,34.709768 -4.78653,42.959845 -12.70462,3.270303 -31.63767,-24.319137 -38.02962,-20.042973 -6.43159,4.295985 11.25776,33.158859 3.68652,43.068854 -11.81767,5.698252 -35.785004,-17.679438 -41.220636,-12.238847 -5.470318,5.470319 17.506008,30.324596 12.020828,41.522896 -10.484775,7.88835 -38.535037,-10.35595 -42.811197,-3.96401 -4.30094,6.43655 23.080389,26.32592 19.884408,38.38143 -8.74061,9.78117 -39.818371,-2.64101 -42.756686,4.45951 -2.95318,7.12528 27.539883,21.20244 27.014654,33.60975 -0.0198,0.0744 -0.03464,0.13875 -0.05455,0.20812 -6.743752,11.22307 -39.535938,5.13338 -41.032349,12.66993 -1.501364,7.56132 31.157037,15.42492 33.054802,27.7034 -0.0049,0.0595 -0.0049,0.11892 -0.0099,0.1883 -4.400039,12.3429 -37.776916,12.76902 -37.776916,20.44927 0,7.69016 33.451202,9.04783 37.796737,20.66731 0.0099,0.10403 0.0099,0.22297 0.02478,0.32702 -2.051369,12.90282 -34.536346,19.81505 -33.034982,27.33673 1.496411,7.52665 34.362923,2.38832 41.02244,12.80868 0.0595,0.21307 0.113967,0.43108 0.178379,0.64415 0.133784,12.97714 -30.002519,25.97411 -27.079069,33.01517 2.928404,7.08069 34.100309,-4.33067 42.712094,4.53877 0.09909,0.18829 0.188288,0.37658 0.292346,0.56487 2.754982,12.69471 -24.329047,31.3701 -20.087568,37.71746 4.261295,6.37212 32.613812,-10.90596 42.781466,-3.87977 0.12883,0.15361 0.2527,0.32208 0.38649,0.48063 5.20275,11.92174 -17.733946,35.53231 -12.332989,40.92335 5.410855,5.41581 29.774588,-16.98078 41.141358,-12.16948 0.17342,0.1437 0.35676,0.28244 0.53018,0.41622 7.4325,10.67307 -10.46,38.3071 -4.11761,42.54858 6.34736,4.23652 25.80069,-22.33218 37.89089,-19.9736 0.24279,0.12883 0.4955,0.24775 0.73829,0.38153 9.25594,9.08251 -2.8293,39.5508 4.2068,42.45939 7.04601,2.92345 20.92001,-26.87096 33.23318,-26.97006 0.29234,0.0892 0.58469,0.15857 0.87208,0.24776 10.80685,7.15501 4.92527,39.31791 12.38254,40.79945 7.49691,1.49146 15.30104,-30.54757 27.38628,-32.95569 0.25766,0.0247 0.52523,0.0346 0.78784,0.0595 12.05552,4.82121 12.54112,37.63322 20.16685,37.63322 7.63566,0 9.03792,-32.97056 20.43937,-37.67782 0.28244,-0.0247 0.55992,-0.0346 0.85227,-0.0595 12.70462,2.48741 19.5772,34.42734 27.03943,32.94084 7.48205,-1.49146 2.44777,-33.98634 12.65011,-40.89362 0.35676,-0.10403 0.71848,-0.19819 1.07524,-0.3072 12.883,0.29234 25.75113,29.97775 32.73768,27.08402 7.06583,-2.92344 -4.24643,-33.8922 4.4595,-42.61795 0.26261,-0.13378 0.52027,-0.25766 0.77298,-0.3964 12.69471,-2.54687 31.271,24.31914 37.58863,20.09748 6.36718,-4.25139 -10.8564,-32.52958 -3.89959,-42.73687 0.17343,-0.13874 0.34685,-0.28739 0.52028,-0.43109 11.92172,-5.15319 35.49761,17.73394 40.89857,12.34291 5.42076,-5.42573 -17.06007,-29.84892 -12.15462,-41.19092 0.11397,-0.14864 0.23288,-0.30225 0.34685,-0.45089 10.63342,-7.52169 38.34178,10.43522 42.60308,4.08291 4.24644,-6.37213 -22.57002,-25.94933 -19.96368,-38.03953 0.0991,-0.16351 0.17342,-0.33694 0.26261,-0.50541 8.9735,-9.43927 39.63999,2.75994 42.57335,-4.30094 2.93336,-7.0906 -27.24258,-21.07361 -26.99979,-33.4413 0.0496,-0.16351 0.0991,-0.32702 0.14369,-0.50045 6.91718,-11.03973 39.43685,-5.03924 40.9283,-12.54606 1.51128,-7.54646 -31.08271,-15.41004 -33.03994,-27.6588 0.01,-0.0892 0.01,-0.17342 0.0198,-0.26757 4.44462,-12.29831 37.767,-12.72939 37.767,-20.40469 z m -174.60428,100.9036 c 8.03206,-5.83698 19.27991,-4.05814 25.11193,3.97886 5.83204,8.03702 4.0631,19.28983 -3.97886,25.12185 -8.03205,5.84691 -19.2799,4.05815 -25.12185,-3.97886 -5.84689,-8.04196 -4.05319,-19.27494 3.98878,-25.12185 z m 75.12771,-8.26989 c -0.84235,1.14461 -1.81849,2.21984 -3.02751,3.10183 -5.68834,4.13247 -13.35372,3.4685 -18.32855,-1.15452 l -20.29567,-20.31549 c -5.86672,-5.86672 -16.16322,-6.67934 -22.87724,-1.79371 l -40.86883,29.69036 c -6.70908,4.87571 -9.1172,14.91949 -5.3514,22.3074 l 12.87309,25.24077 -0.01,0.0445 c 3.07706,6.21853 1.36263,13.91364 -4.43968,18.13034 -1.28831,0.93155 -2.70047,1.55587 -4.14239,2.01173 -13.39336,3.29012 -27.38627,5.06896 -41.80037,5.06896 -14.41904,0 -28.41197,-1.77884 -41.81028,-5.07391 -1.44686,-0.45091 -2.85904,-1.07523 -4.14734,-2.01669 -5.69329,-4.13247 -7.43249,-11.62442 -4.5685,-17.77853 l 13.04651,-25.58267 c 3.7658,-7.39285 1.35271,-17.44159 -5.35636,-22.31236 l -40.87378,-29.69531 c -6.71402,-4.87572 -17.00557,-4.0631 -22.87228,1.79866 l -20.0281,20.04792 -0.0445,-0.004 c -4.95501,4.85093 -12.80869,5.59915 -18.61099,1.37749 -1.20902,-0.87704 -2.17524,-1.94237 -3.0176,-3.08202 -14.755978,-23.62543 -24.002014,-51.02659 -25.998872,-80.42459 0.04454,-1.29326 0.203156,-2.59147 0.619378,-3.88472 2.175239,-6.69421 8.760439,-10.65821 15.499226,-9.84063 l 28.367378,4.5041 c 8.19557,1.29821 17.0006,-4.09779 19.56234,-11.9911 l 15.61321,-48.04368 c 2.56668,-7.89331 -1.3874,-17.43169 -8.78027,-21.19253 l -25.25563,-12.85327 -0.005,-0.0445 c -6.1442,-3.2158 -9.28072,-10.45009 -7.06584,-17.27312 0.42613,-1.31804 1.0802,-2.47255 1.82344,-3.56265 18.2245,-21.72767 41.64182,-38.93144 68.33936,-49.753154 1.3329,-0.406302 2.71534,-0.698649 4.18202,-0.698649 7.04105,0 12.84335,5.044188 14.14652,11.693793 l 4.48427,28.37233 c 1.29821,8.20052 9.14693,14.90464 17.44656,14.90464 l 50.52118,0 c 8.29466,0 16.15329,-6.70412 17.44654,-14.90464 l 4.42482,-27.98584 0.0297,-0.0198 c 1.15948,-6.842843 7.07575,-12.060461 14.24563,-12.060461 1.47164,0 2.85408,0.292347 4.18201,0.698649 26.7025,10.821722 50.11983,28.025482 68.35423,49.753152 0.73334,1.0901 1.38244,2.25453 1.80857,3.56265 2.17525,6.69915 -0.82252,13.7749 -6.75366,17.07493 l -25.58762,13.02669 c -7.39286,3.77076 -11.3519,13.30912 -8.78521,21.19748 l 15.61816,48.04369 c 2.56668,7.89825 11.3618,13.28929 19.55738,11.99109 l 27.97593,-4.44464 0.0396,0.0297 c 6.86268,-1.01083 13.65598,2.99282 15.87087,9.8208 0.41622,1.2883 0.56982,2.58651 0.61938,3.87481 -1.99191,29.39802 -11.23795,56.78926 -25.99393,80.41965 z m -246.54591,12.24875 c 5.83699,-8.04196 17.07988,-9.8208 25.12184,-3.97886 8.03701,5.83699 9.81586,17.07989 3.98382,25.11689 -5.84195,8.03207 -17.08979,9.81586 -25.1268,3.97887 -8.04196,-5.83699 -9.82576,-17.08483 -3.97886,-25.1169 z M 126.09475,194.97671 c 9.44919,3.07211 14.61726,13.21498 11.55011,22.66417 -3.07209,9.44423 -13.21498,14.61725 -22.65921,11.54515 -9.44918,-3.06715 -14.6222,-13.21498 -11.55506,-22.66416 3.0721,-9.44919 13.21499,-14.61726 22.66416,-11.54516 z M 255.99998,95.68348 c 9.92981,0 17.9817,8.05187 17.9817,17.98665 0,9.93477 -8.05189,17.98664 -17.9817,17.98664 -9.93478,0 -17.98665,-8.05187 -17.98665,-17.98664 0,-9.93478 8.05187,-17.98665 17.98665,-17.98665 z m 141.01433,133.50255 c -9.45414,3.07705 -19.58711,-2.09597 -22.65426,-11.5402 -3.07705,-9.44918 2.09101,-19.59207 11.53524,-22.66416 9.45414,-3.06715 19.59703,2.10092 22.66417,11.54515 3.07706,9.44919 -2.09102,19.59702 -11.54515,22.65921 z"
     id="path4"
     inkscape:connector-curvature="0"
     style="clip-rule:evenodd;fill:none;fill-rule:evenodd;stroke:#ffffff;stroke-width:3.9000001;stroke-miterlimit:4;stroke-dasharray:none;stroke-opacity:1;filter:url(#filter4244)"
     transform="matrix(0.7253721,0,0,0.7253721,70.30474,70.304735)" /></svg>